<svg width="77mm" height="77mm" version="1.1" viewBox="0 0 77 77" xmlns="http://www.w3.org/2000/svg"><path d="M4,4H5V5H4zM5,4H6V5H5zM6,4H7V5H6zM7,4H8V5H7zM8,4H9V5H8zM9,4H10V5H9zM10,4H11V5H10zM12,4H13V5H12zM13,4H14V5H13zM19,4H20V5H19zM21,4H22V5H21zM23,4H24V5H23zM25,4H26V5H25zM28,4H29V5H28zM32,4H33V5H32zM33,4H34V5H33zM36,4H37V5H36zM38,4H39V5H38zM39,4H40V5H39zM49,4H50V5H49zM50,4H51V5H50zM52,4H53V5H52zM54,4H55V5H54zM55,4H56V5H55zM56,4H57V5H56zM58,4H59V5H58zM59,4H60V5H59zM60,4H61V5H60zM61,4H62V5H61zM62,4H63V5H62zM63,4H64V5H63zM64,4H65V5H64zM66,4H67V5H66zM67,4H68V5H67zM68,4H69V5H68zM69,4H70V5H69zM70,4H71V5H70zM71,4H72V5H71zM72,4H73V5H72zM4,5H5V6H4zM10,5H11V6H10zM14,5H15V6H14zM15,5H16V6H15zM17,5H18V6H17zM18,5H19V6H18zM20,5H21V6H20zM21,5H22V6H21zM22,5H23V6H22zM23,5H24V6H23zM26,5H27V6H26zM27,5H28V6H27zM28,5H29V6H28zM35,5H36V6H35zM37,5H38V6H37zM41,5H42V6H41zM42,5H43V6H42zM47,5H48V6H47zM49,5H50V6H49zM50,5H51V6H50zM51,5H52V6H51zM52,5H53V6H52zM54,5H55V6H54zM55,5H56V6H55zM56,5H57V6H56zM66,5H67V6H66zM72,5H73V6H72zM4,6H5V7H4zM6,6H7V7H6zM7,6H8V7H7zM8,6H9V7H8zM10,6H11V7H10zM12,6H13V7H12zM14,6H15V7H14zM19,6H20V7H19zM20,6H21V7H20zM22,6H23V7H22zM24,6H25V7H24zM25,6H26V7H25zM26,6H27V7H26zM28,6H29V7H28zM29,6H30V7H29zM30,6H31V7H30zM36,6H37V7H36zM37,6H38V7H37zM39,6H40V7H39zM41,6H42V7H41zM43,6H44V7H43zM44,6H45V7H44zM45,6H46V7H45zM46,6H47V7H46zM47,6H48V7H47zM48,6H49V7H48zM51,6H52V7H51zM55,6H56V7H55zM56,6H57V7H56zM60,6H61V7H60zM61,6H62V7H61zM62,6H63V7H62zM66,6H67V7H66zM68,6H69V7H68zM69,6H70V7H69zM70,6H71V7H70zM72,6H73V7H72zM4,7H5V8H4zM6,7H7V8H6zM7,7H8V8H7zM8,7H9V8H8zM10,7H11V8H10zM13,7H14V8H13zM15,7H16V8H15zM16,7H17V8H16zM18,7H19V8H18zM20,7H21V8H20zM22,7H23V8H22zM23,7H24V8H23zM24,7H25V8H24zM25,7H26V8H25zM28,7H29V8H28zM29,7H30V8H29zM34,7H35V8H34zM36,7H37V8H36zM38,7H39V8H38zM39,7H40V8H39zM40,7H41V8H40zM42,7H43V8H42zM43,7H44V8H43zM45,7H46V8H45zM48,7H49V8H48zM49,7H50V8H49zM50,7H51V8H50zM51,7H52V8H51zM52,7H53V8H52zM54,7H55V8H54zM55,7H56V8H55zM56,7H57V8H56zM58,7H59V8H58zM59,7H60V8H59zM60,7H61V8H60zM61,7H62V8H61zM64,7H65V8H64zM66,7H67V8H66zM68,7H69V8H68zM69,7H70V8H69zM70,7H71V8H70zM72,7H73V8H72zM4,8H5V9H4zM6,8H7V9H6zM7,8H8V9H7zM8,8H9V9H8zM10,8H11V9H10zM12,8H13V9H12zM14,8H15V9H14zM16,8H17V9H16zM17,8H18V9H17zM19,8H20V9H19zM22,8H23V9H22zM23,8H24V9H23zM25,8H26V9H25zM27,8H28V9H27zM28,8H29V9H28zM30,8H31V9H30zM31,8H32V9H31zM36,8H37V9H36zM37,8H38V9H37zM38,8H39V9H38zM39,8H40V9H39zM40,8H41V9H40zM41,8H42V9H41zM42,8H43V9H42zM43,8H44V9H43zM53,8H54V9H53zM57,8H58V9H57zM58,8H59V9H58zM59,8H60V9H59zM60,8H61V9H60zM62,8H63V9H62zM64,8H65V9H64zM66,8H67V9H66zM68,8H69V9H68zM69,8H70V9H69zM70,8H71V9H70zM72,8H73V9H72zM4,9H5V10H4zM10,9H11V10H10zM15,9H16V10H15zM16,9H17V10H16zM17,9H18V10H17zM19,9H20V10H19zM20,9H21V10H20zM21,9H22V10H21zM22,9H23V10H22zM24,9H25V10H24zM25,9H26V10H25zM27,9H28V10H27zM30,9H31V10H30zM32,9H33V10H32zM36,9H37V10H36zM40,9H41V10H40zM41,9H42V10H41zM42,9H43V10H42zM44,9H45V10H44zM45,9H46V10H45zM46,9H47V10H46zM51,9H52V10H51zM54,9H55V10H54zM56,9H57V10H56zM57,9H58V10H57zM62,9H63V10H62zM66,9H67V10H66zM72,9H73V10H72zM4,10H5V11H4zM5,10H6V11H5zM6,10H7V11H6zM7,10H8V11H7zM8,10H9V11H8zM9,10H10V11H9zM10,10H11V11H10zM12,10H13V11H12zM14,10H15V11H14zM16,10H17V11H16zM18,10H19V11H18zM20,10H21V11H20zM22,10H23V11H22zM24,10H25V11H24zM26,10H27V11H26zM28,10H29V11H28zM30,10H31V11H30zM32,10H33V11H32zM34,10H35V11H34zM36,10H37V11H36zM38,10H39V11H38zM40,10H41V11H40zM42,10H43V11H42zM44,10H45V11H44zM46,10H47V11H46zM48,10H49V11H48zM50,10H51V11H50zM52,10H53V11H52zM54,10H55V11H54zM56,10H57V11H56zM58,10H59V11H58zM60,10H61V11H60zM62,10H63V11H62zM64,10H65V11H64zM66,10H67V11H66zM67,10H68V11H67zM68,10H69V11H68zM69,10H70V11H69zM70,10H71V11H70zM71,10H72V11H71zM72,10H73V11H72zM12,11H13V12H12zM14,11H15V12H14zM15,11H16V12H15zM16,11H17V12H16zM17,11H18V12H17zM19,11H20V12H19zM21,11H22V12H21zM24,11H25V12H24zM27,11H28V12H27zM28,11H29V12H28zM29,11H30V12H29zM30,11H31V12H30zM31,11H32V12H31zM34,11H35V12H34zM35,11H36V12H35zM36,11H37V12H36zM40,11H41V12H40zM42,11H43V12H42zM44,11H45V12H44zM45,11H46V12H45zM46,11H47V12H46zM50,11H51V12H50zM56,11H57V12H56zM57,11H58V12H57zM60,11H61V12H60zM61,11H62V12H61zM64,11H65V12H64zM9,12H10V13H9zM10,12H11V13H10zM13,12H14V13H13zM15,12H16V13H15zM19,12H20V13H19zM20,12H21V13H20zM21,12H22V13H21zM24,12H25V13H24zM26,12H27V13H26zM28,12H29V13H28zM30,12H31V13H30zM32,12H33V13H32zM33,12H34V13H33zM34,12H35V13H34zM35,12H36V13H35zM36,12H37V13H36zM37,12H38V13H37zM38,12H39V13H38zM39,12H40V13H39zM40,12H41V13H40zM42,12H43V13H42zM44,12H45V13H44zM52,12H53V13H52zM54,12H55V13H54zM57,12H58V13H57zM59,12H60V13H59zM66,12H67V13H66zM68,12H69V13H68zM70,12H71V13H70zM72,12H73V13H72zM6,13H7V14H6zM7,13H8V14H7zM8,13H9V14H8zM9,13H10V14H9zM11,13H12V14H11zM13,13H14V14H13zM16,13H17V14H16zM17,13H18V14H17zM20,13H21V14H20zM21,13H22V14H21zM23,13H24V14H23zM24,13H25V14H24zM25,13H26V14H25zM29,13H30V14H29zM31,13H32V14H31zM32,13H33V14H32zM33,13H34V14H33zM37,13H38V14H37zM38,13H39V14H38zM41,13H42V14H41zM42,13H43V14H42zM43,13H44V14H43zM44,13H45V14H44zM49,13H50V14H49zM50,13H51V14H50zM51,13H52V14H51zM52,13H53V14H52zM53,13H54V14H53zM54,13H55V14H54zM55,13H56V14H55zM56,13H57V14H56zM57,13H58V14H57zM58,13H59V14H58zM60,13H61V14H60zM62,13H63V14H62zM64,13H65V14H64zM65,13H66V14H65zM66,13H67V14H66zM69,13H70V14H69zM4,14H5V15H4zM6,14H7V15H6zM7,14H8V15H7zM9,14H10V15H9zM10,14H11V15H10zM12,14H13V15H12zM13,14H14V15H13zM17,14H18V15H17zM19,14H20V15H19zM21,14H22V15H21zM23,14H24V15H23zM25,14H26V15H25zM27,14H28V15H27zM32,14H33V15H32zM34,14H35V15H34zM35,14H36V15H35zM36,14H37V15H36zM37,14H38V15H37zM38,14H39V15H38zM39,14H40V15H39zM40,14H41V15H40zM41,14H42V15H41zM42,14H43V15H42zM44,14H45V15H44zM45,14H46V15H45zM48,14H49V15H48zM49,14H50V15H49zM50,14H51V15H50zM51,14H52V15H51zM54,14H55V15H54zM55,14H56V15H55zM56,14H57V15H56zM59,14H60V15H59zM62,14H63V15H62zM66,14H67V15H66zM67,14H68V15H67zM5,15H6V16H5zM7,15H8V16H7zM11,15H12V16H11zM13,15H14V16H13zM14,15H15V16H14zM19,15H20V16H19zM20,15H21V16H20zM25,15H26V16H25zM28,15H29V16H28zM29,15H30V16H29zM30,15H31V16H30zM31,15H32V16H31zM32,15H33V16H32zM33,15H34V16H33zM36,15H37V16H36zM39,15H40V16H39zM43,15H44V16H43zM47,15H48V16H47zM49,15H50V16H49zM50,15H51V16H50zM55,15H56V16H55zM56,15H57V16H56zM57,15H58V16H57zM58,15H59V16H58zM59,15H60V16H59zM60,15H61V16H60zM61,15H62V16H61zM64,15H65V16H64zM65,15H66V16H65zM66,15H67V16H66zM67,15H68V16H67zM68,15H69V16H68zM69,15H70V16H69zM70,15H71V16H70zM71,15H72V16H71zM4,16H5V17H4zM7,16H8V17H7zM10,16H11V17H10zM17,16H18V17H17zM18,16H19V17H18zM20,16H21V17H20zM25,16H26V17H25zM26,16H27V17H26zM29,16H30V17H29zM30,16H31V17H30zM31,16H32V17H31zM34,16H35V17H34zM35,16H36V17H35zM37,16H38V17H37zM38,16H39V17H38zM39,16H40V17H39zM46,16H47V17H46zM47,16H48V17H47zM52,16H53V17H52zM53,16H54V17H53zM54,16H55V17H54zM55,16H56V17H55zM56,16H57V17H56zM58,16H59V17H58zM59,16H60V17H59zM60,16H61V17H60zM62,16H63V17H62zM63,16H64V17H63zM66,16H67V17H66zM68,16H69V17H68zM69,16H70V17H69zM72,16H73V17H72zM4,17H5V18H4zM5,17H6V18H5zM7,17H8V18H7zM9,17H10V18H9zM13,17H14V18H13zM15,17H16V18H15zM18,17H19V18H18zM19,17H20V18H19zM22,17H23V18H22zM23,17H24V18H23zM24,17H25V18H24zM26,17H27V18H26zM27,17H28V18H27zM28,17H29V18H28zM29,17H30V18H29zM30,17H31V18H30zM31,17H32V18H31zM34,17H35V18H34zM36,17H37V18H36zM37,17H38V18H37zM38,17H39V18H38zM40,17H41V18H40zM41,17H42V18H41zM42,17H43V18H42zM44,17H45V18H44zM45,17H46V18H45zM46,17H47V18H46zM48,17H49V18H48zM49,17H50V18H49zM51,17H52V18H51zM53,17H54V18H53zM55,17H56V18H55zM58,17H59V18H58zM59,17H60V18H59zM61,17H62V18H61zM63,17H64V18H63zM64,17H65V18H64zM65,17H66V18H65zM70,17H71V18H70zM71,17H72V18H71zM72,17H73V18H72zM4,18H5V19H4zM5,18H6V19H5zM6,18H7V19H6zM8,18H9V19H8zM10,18H11V19H10zM11,18H12V19H11zM14,18H15V19H14zM15,18H16V19H15zM16,18H17V19H16zM18,18H19V19H18zM19,18H20V19H19zM22,18H23V19H22zM26,18H27V19H26zM27,18H28V19H27zM40,18H41V19H40zM44,18H45V19H44zM46,18H47V19H46zM47,18H48V19H47zM50,18H51V19H50zM54,18H55V19H54zM57,18H58V19H57zM59,18H60V19H59zM61,18H62V19H61zM62,18H63V19H62zM64,18H65V19H64zM66,18H67V19H66zM67,18H68V19H67zM70,18H71V19H70zM4,19H5V20H4zM8,19H9V20H8zM9,19H10V20H9zM18,19H19V20H18zM19,19H20V20H19zM21,19H22V20H21zM25,19H26V20H25zM26,19H27V20H26zM27,19H28V20H27zM35,19H36V20H35zM36,19H37V20H36zM38,19H39V20H38zM40,19H41V20H40zM41,19H42V20H41zM42,19H43V20H42zM43,19H44V20H43zM44,19H45V20H44zM46,19H47V20H46zM47,19H48V20H47zM49,19H50V20H49zM51,19H52V20H51zM54,19H55V20H54zM59,19H60V20H59zM62,19H63V20H62zM63,19H64V20H63zM65,19H66V20H65zM66,19H67V20H66zM67,19H68V20H67zM71,19H72V20H71zM72,19H73V20H72zM6,20H7V21H6zM10,20H11V21H10zM12,20H13V21H12zM15,20H16V21H15zM18,20H19V21H18zM19,20H20V21H19zM23,20H24V21H23zM25,20H26V21H25zM33,20H34V21H33zM34,20H35V21H34zM40,20H41V21H40zM41,20H42V21H41zM43,20H44V21H43zM44,20H45V21H44zM46,20H47V21H46zM47,20H48V21H47zM48,20H49V21H48zM49,20H50V21H49zM50,20H51V21H50zM52,20H53V21H52zM57,20H58V21H57zM58,20H59V21H58zM59,20H60V21H59zM61,20H62V21H61zM63,20H64V21H63zM65,20H66V21H65zM71,20H72V21H71zM11,21H12V22H11zM12,21H13V22H12zM14,21H15V22H14zM15,21H16V22H15zM16,21H17V22H16zM17,21H18V22H17zM19,21H20V22H19zM20,21H21V22H20zM21,21H22V22H21zM22,21H23V22H22zM23,21H24V22H23zM24,21H25V22H24zM26,21H27V22H26zM27,21H28V22H27zM28,21H29V22H28zM29,21H30V22H29zM32,21H33V22H32zM34,21H35V22H34zM35,21H36V22H35zM38,21H39V22H38zM40,21H41V22H40zM41,21H42V22H41zM44,21H45V22H44zM45,21H46V22H45zM46,21H47V22H46zM49,21H50V22H49zM51,21H52V22H51zM52,21H53V22H52zM53,21H54V22H53zM55,21H56V22H55zM57,21H58V22H57zM58,21H59V22H58zM59,21H60V22H59zM60,21H61V22H60zM61,21H62V22H61zM64,21H65V22H64zM65,21H66V22H65zM70,21H71V22H70zM71,21H72V22H71zM72,21H73V22H72zM6,22H7V23H6zM8,22H9V23H8zM9,22H10V23H9zM10,22H11V23H10zM11,22H12V23H11zM12,22H13V23H12zM16,22H17V23H16zM17,22H18V23H17zM19,22H20V23H19zM20,22H21V23H20zM23,22H24V23H23zM25,22H26V23H25zM26,22H27V23H26zM27,22H28V23H27zM30,22H31V23H30zM31,22H32V23H31zM33,22H34V23H33zM34,22H35V23H34zM35,22H36V23H35zM36,22H37V23H36zM37,22H38V23H37zM41,22H42V23H41zM49,22H50V23H49zM52,22H53V23H52zM53,22H54V23H53zM55,22H56V23H55zM56,22H57V23H56zM57,22H58V23H57zM64,22H65V23H64zM65,22H66V23H65zM66,22H67V23H66zM68,22H69V23H68zM70,22H71V23H70zM71,22H72V23H71zM72,22H73V23H72zM4,23H5V24H4zM6,23H7V24H6zM7,23H8V24H7zM8,23H9V24H8zM11,23H12V24H11zM13,23H14V24H13zM14,23H15V24H14zM15,23H16V24H15zM21,23H22V24H21zM27,23H28V24H27zM28,23H29V24H28zM29,23H30V24H29zM32,23H33V24H32zM33,23H34V24H33zM37,23H38V24H37zM38,23H39V24H38zM41,23H42V24H41zM42,23H43V24H42zM43,23H44V24H43zM45,23H46V24H45zM48,23H49V24H48zM53,23H54V24H53zM54,23H55V24H54zM57,23H58V24H57zM58,23H59V24H58zM59,23H60V24H59zM60,23H61V24H60zM61,23H62V24H61zM62,23H63V24H62zM64,23H65V24H64zM68,23H69V24H68zM70,23H71V24H70zM71,23H72V24H71zM72,23H73V24H72zM4,24H5V25H4zM8,24H9V25H8zM9,24H10V25H9zM10,24H11V25H10zM11,24H12V25H11zM12,24H13V25H12zM13,24H14V25H13zM15,24H16V25H15zM17,24H18V25H17zM18,24H19V25H18zM19,24H20V25H19zM20,24H21V25H20zM21,24H22V25H21zM23,24H24V25H23zM26,24H27V25H26zM27,24H28V25H27zM30,24H31V25H30zM33,24H34V25H33zM34,24H35V25H34zM37,24H38V25H37zM38,24H39V25H38zM39,24H40V25H39zM40,24H41V25H40zM43,24H44V25H43zM45,24H46V25H45zM47,24H48V25H47zM48,24H49V25H48zM51,24H52V25H51zM52,24H53V25H52zM54,24H55V25H54zM57,24H58V25H57zM58,24H59V25H58zM61,24H62V25H61zM62,24H63V25H62zM6,25H7V26H6zM7,25H8V26H7zM8,25H9V26H8zM11,25H12V26H11zM13,25H14V26H13zM15,25H16V26H15zM16,25H17V26H16zM19,25H20V26H19zM20,25H21V26H20zM22,25H23V26H22zM23,25H24V26H23zM24,25H25V26H24zM26,25H27V26H26zM29,25H30V26H29zM35,25H36V26H35zM36,25H37V26H36zM38,25H39V26H38zM39,25H40V26H39zM40,25H41V26H40zM41,25H42V26H41zM44,25H45V26H44zM45,25H46V26H45zM46,25H47V26H46zM48,25H49V26H48zM50,25H51V26H50zM52,25H53V26H52zM53,25H54V26H53zM54,25H55V26H54zM56,25H57V26H56zM58,25H59V26H58zM60,25H61V26H60zM61,25H62V26H61zM62,25H63V26H62zM64,25H65V26H64zM65,25H66V26H65zM66,25H67V26H66zM70,25H71V26H70zM71,25H72V26H71zM4,26H5V27H4zM9,26H10V27H9zM10,26H11V27H10zM11,26H12V27H11zM12,26H13V27H12zM13,26H14V27H13zM14,26H15V27H14zM18,26H19V27H18zM20,26H21V27H20zM24,26H25V27H24zM25,26H26V27H25zM27,26H28V27H27zM28,26H29V27H28zM31,26H32V27H31zM32,26H33V27H32zM34,26H35V27H34zM35,26H36V27H35zM36,26H37V27H36zM39,26H40V27H39zM40,26H41V27H40zM41,26H42V27H41zM43,26H44V27H43zM44,26H45V27H44zM45,26H46V27H45zM47,26H48V27H47zM48,26H49V27H48zM52,26H53V27H52zM54,26H55V27H54zM55,26H56V27H55zM57,26H58V27H57zM59,26H60V27H59zM61,26H62V27H61zM62,26H63V27H62zM63,26H64V27H63zM64,26H65V27H64zM66,26H67V27H66zM5,27H6V28H5zM6,27H7V28H6zM8,27H9V28H8zM14,27H15V28H14zM15,27H16V28H15zM16,27H17V28H16zM17,27H18V28H17zM18,27H19V28H18zM20,27H21V28H20zM21,27H22V28H21zM22,27H23V28H22zM24,27H25V28H24zM27,27H28V28H27zM33,27H34V28H33zM37,27H38V28H37zM38,27H39V28H38zM41,27H42V28H41zM42,27H43V28H42zM44,27H45V28H44zM46,27H47V28H46zM47,27H48V28H47zM49,27H50V28H49zM51,27H52V28H51zM53,27H54V28H53zM55,27H56V28H55zM56,27H57V28H56zM57,27H58V28H57zM58,27H59V28H58zM59,27H60V28H59zM60,27H61V28H60zM63,27H64V28H63zM64,27H65V28H64zM68,27H69V28H68zM70,27H71V28H70zM72,27H73V28H72zM6,28H7V29H6zM9,28H10V29H9zM10,28H11V29H10zM11,28H12V29H11zM12,28H13V29H12zM13,28H14V29H13zM14,28H15V29H14zM17,28H18V29H17zM19,28H20V29H19zM20,28H21V29H20zM21,28H22V29H21zM23,28H24V29H23zM26,28H27V29H26zM29,28H30V29H29zM31,28H32V29H31zM34,28H35V29H34zM36,28H37V29H36zM38,28H39V29H38zM39,28H40V29H39zM42,28H43V29H42zM46,28H47V29H46zM48,28H49V29H48zM50,28H51V29H50zM51,28H52V29H51zM52,28H53V29H52zM53,28H54V29H53zM54,28H55V29H54zM56,28H57V29H56zM58,28H59V29H58zM60,28H61V29H60zM65,28H66V29H65zM68,28H69V29H68zM71,28H72V29H71zM72,28H73V29H72zM4,29H5V30H4zM5,29H6V30H5zM8,29H9V30H8zM12,29H13V30H12zM13,29H14V30H13zM15,29H16V30H15zM16,29H17V30H16zM17,29H18V30H17zM20,29H21V30H20zM22,29H23V30H22zM23,29H24V30H23zM25,29H26V30H25zM27,29H28V30H27zM28,29H29V30H28zM31,29H32V30H31zM34,29H35V30H34zM35,29H36V30H35zM36,29H37V30H36zM38,29H39V30H38zM42,29H43V30H42zM44,29H45V30H44zM45,29H46V30H45zM48,29H49V30H48zM51,29H52V30H51zM52,29H53V30H52zM53,29H54V30H53zM55,29H56V30H55zM58,29H59V30H58zM61,29H62V30H61zM63,29H64V30H63zM64,29H65V30H64zM68,29H69V30H68zM72,29H73V30H72zM4,30H5V31H4zM5,30H6V31H5zM6,30H7V31H6zM7,30H8V31H7zM8,30H9V31H8zM9,30H10V31H9zM10,30H11V31H10zM11,30H12V31H11zM14,30H15V31H14zM15,30H16V31H15zM16,30H17V31H16zM19,30H20V31H19zM20,30H21V31H20zM22,30H23V31H22zM23,30H24V31H23zM24,30H25V31H24zM25,30H26V31H25zM29,30H30V31H29zM33,30H34V31H33zM34,30H35V31H34zM36,30H37V31H36zM38,30H39V31H38zM42,30H43V31H42zM44,30H45V31H44zM45,30H46V31H45zM46,30H47V31H46zM47,30H48V31H47zM49,30H50V31H49zM50,30H51V31H50zM51,30H52V31H51zM52,30H53V31H52zM54,30H55V31H54zM57,30H58V31H57zM62,30H63V31H62zM64,30H65V31H64zM65,30H66V31H65zM66,30H67V31H66zM67,30H68V31H67zM70,30H71V31H70zM71,30H72V31H71zM4,31H5V32H4zM5,31H6V32H5zM14,31H15V32H14zM15,31H16V32H15zM19,31H20V32H19zM21,31H22V32H21zM22,31H23V32H22zM23,31H24V32H23zM25,31H26V32H25zM26,31H27V32H26zM27,31H28V32H27zM28,31H29V32H28zM30,31H31V32H30zM32,31H33V32H32zM33,31H34V32H33zM36,31H37V32H36zM37,31H38V32H37zM39,31H40V32H39zM45,31H46V32H45zM46,31H47V32H46zM47,31H48V32H47zM48,31H49V32H48zM50,31H51V32H50zM51,31H52V32H51zM54,31H55V32H54zM55,31H56V32H55zM57,31H58V32H57zM58,31H59V32H58zM62,31H63V32H62zM63,31H64V32H63zM64,31H65V32H64zM65,31H66V32H65zM67,31H68V32H67zM69,31H70V32H69zM70,31H71V32H70zM72,31H73V32H72zM4,32H5V33H4zM5,32H6V33H5zM6,32H7V33H6zM7,32H8V33H7zM10,32H11V33H10zM11,32H12V33H11zM14,32H15V33H14zM15,32H16V33H15zM17,32H18V33H17zM21,32H22V33H21zM22,32H23V33H22zM25,32H26V33H25zM29,32H30V33H29zM31,32H32V33H31zM32,32H33V33H32zM34,32H35V33H34zM35,32H36V33H35zM36,32H37V33H36zM37,32H38V33H37zM39,32H40V33H39zM40,32H41V33H40zM42,32H43V33H42zM44,32H45V33H44zM45,32H46V33H45zM46,32H47V33H46zM47,32H48V33H47zM50,32H51V33H50zM51,32H52V33H51zM52,32H53V33H52zM53,32H54V33H53zM55,32H56V33H55zM58,32H59V33H58zM62,32H63V33H62zM63,32H64V33H63zM67,32H68V33H67zM71,32H72V33H71zM4,33H5V34H4zM6,33H7V34H6zM8,33H9V34H8zM9,33H10V34H9zM13,33H14V34H13zM14,33H15V34H14zM16,33H17V34H16zM17,33H18V34H17zM19,33H20V34H19zM21,33H22V34H21zM27,33H28V34H27zM29,33H30V34H29zM31,33H32V34H31zM34,33H35V34H34zM35,33H36V34H35zM36,33H37V34H36zM38,33H39V34H38zM39,33H40V34H39zM40,33H41V34H40zM41,33H42V34H41zM42,33H43V34H42zM46,33H47V34H46zM47,33H48V34H47zM49,33H50V34H49zM51,33H52V34H51zM52,33H53V34H52zM56,33H57V34H56zM57,33H58V34H57zM58,33H59V34H58zM59,33H60V34H59zM61,33H62V34H61zM63,33H64V34H63zM64,33H65V34H64zM65,33H66V34H65zM67,33H68V34H67zM70,33H71V34H70zM71,33H72V34H71zM72,33H73V34H72zM5,34H6V35H5zM10,34H11V35H10zM11,34H12V35H11zM12,34H13V35H12zM13,34H14V35H13zM15,34H16V35H15zM18,34H19V35H18zM21,34H22V35H21zM23,34H24V35H23zM24,34H25V35H24zM25,34H26V35H25zM26,34H27V35H26zM28,34H29V35H28zM29,34H30V35H29zM30,34H31V35H30zM32,34H33V35H32zM35,34H36V35H35zM37,34H38V35H37zM40,34H41V35H40zM46,34H47V35H46zM47,34H48V35H47zM49,34H50V35H49zM51,34H52V35H51zM54,34H55V35H54zM55,34H56V35H55zM56,34H57V35H56zM57,34H58V35H57zM60,34H61V35H60zM61,34H62V35H61zM64,34H65V35H64zM68,34H69V35H68zM71,34H72V35H71zM72,34H73V35H72zM4,35H5V36H4zM7,35H8V36H7zM8,35H9V36H8zM11,35H12V36H11zM12,35H13V36H12zM13,35H14V36H13zM16,35H17V36H16zM18,35H19V36H18zM19,35H20V36H19zM21,35H22V36H21zM24,35H25V36H24zM25,35H26V36H25zM27,35H28V36H27zM30,35H31V36H30zM31,35H32V36H31zM33,35H34V36H33zM35,35H36V36H35zM36,35H37V36H36zM37,35H38V36H37zM38,35H39V36H38zM39,35H40V36H39zM40,35H41V36H40zM42,35H43V36H42zM43,35H44V36H43zM44,35H45V36H44zM45,35H46V36H45zM46,35H47V36H46zM47,35H48V36H47zM51,35H52V36H51zM53,35H54V36H53zM54,35H55V36H54zM56,35H57V36H56zM60,35H61V36H60zM66,35H67V36H66zM68,35H69V36H68zM69,35H70V36H69zM70,35H71V36H70zM71,35H72V36H71zM4,36H5V37H4zM6,36H7V37H6zM8,36H9V37H8zM9,36H10V37H9zM10,36H11V37H10zM11,36H12V37H11zM12,36H13V37H12zM13,36H14V37H13zM15,36H16V37H15zM17,36H18V37H17zM19,36H20V37H19zM20,36H21V37H20zM21,36H22V37H21zM22,36H23V37H22zM23,36H24V37H23zM25,36H26V37H25zM26,36H27V37H26zM27,36H28V37H27zM29,36H30V37H29zM31,36H32V37H31zM34,36H35V37H34zM35,36H36V37H35zM36,36H37V37H36zM37,36H38V37H37zM38,36H39V37H38zM39,36H40V37H39zM40,36H41V37H40zM45,36H46V37H45zM46,36H47V37H46zM52,36H53V37H52zM53,36H54V37H53zM54,36H55V37H54zM55,36H56V37H55zM58,36H59V37H58zM59,36H60V37H59zM62,36H63V37H62zM63,36H64V37H63zM64,36H65V37H64zM65,36H66V37H65zM66,36H67V37H66zM67,36H68V37H67zM68,36H69V37H68zM71,36H72V37H71zM4,37H5V38H4zM6,37H7V38H6zM7,37H8V38H7zM8,37H9V38H8zM12,37H13V38H12zM14,37H15V38H14zM17,37H18V38H17zM19,37H20V38H19zM22,37H23V38H22zM23,37H24V38H23zM24,37H25V38H24zM27,37H28V38H27zM28,37H29V38H28zM29,37H30V38H29zM30,37H31V38H30zM33,37H34V38H33zM34,37H35V38H34zM35,37H36V38H35zM36,37H37V38H36zM40,37H41V38H40zM41,37H42V38H41zM42,37H43V38H42zM43,37H44V38H43zM45,37H46V38H45zM46,37H47V38H46zM49,37H50V38H49zM50,37H51V38H50zM52,37H53V38H52zM54,37H55V38H54zM57,37H58V38H57zM58,37H59V38H58zM59,37H60V38H59zM61,37H62V38H61zM62,37H63V38H62zM64,37H65V38H64zM68,37H69V38H68zM70,37H71V38H70zM4,38H5V39H4zM7,38H8V39H7zM8,38H9V39H8zM10,38H11V39H10zM12,38H13V39H12zM14,38H15V39H14zM15,38H16V39H15zM16,38H17V39H16zM18,38H19V39H18zM19,38H20V39H19zM21,38H22V39H21zM23,38H24V39H23zM24,38H25V39H24zM29,38H30V39H29zM30,38H31V39H30zM31,38H32V39H31zM34,38H35V39H34zM36,38H37V39H36zM38,38H39V39H38zM40,38H41V39H40zM41,38H42V39H41zM42,38H43V39H42zM43,38H44V39H43zM45,38H46V39H45zM46,38H47V39H46zM47,38H48V39H47zM48,38H49V39H48zM49,38H50V39H49zM50,38H51V39H50zM51,38H52V39H51zM52,38H53V39H52zM54,38H55V39H54zM55,38H56V39H55zM56,38H57V39H56zM62,38H63V39H62zM63,38H64V39H63zM64,38H65V39H64zM66,38H67V39H66zM68,38H69V39H68zM69,38H70V39H69zM71,38H72V39H71zM8,39H9V40H8zM12,39H13V40H12zM16,39H17V40H16zM18,39H19V40H18zM19,39H20V40H19zM20,39H21V40H20zM21,39H22V40H21zM23,39H24V40H23zM24,39H25V40H24zM25,39H26V40H25zM26,39H27V40H26zM27,39H28V40H27zM30,39H31V40H30zM32,39H33V40H32zM35,39H36V40H35zM36,39H37V40H36zM40,39H41V40H40zM44,39H45V40H44zM46,39H47V40H46zM49,39H50V40H49zM50,39H51V40H50zM51,39H52V40H51zM57,39H58V40H57zM59,39H60V40H59zM60,39H61V40H60zM61,39H62V40H61zM62,39H63V40H62zM64,39H65V40H64zM68,39H69V40H68zM70,39H71V40H70zM71,39H72V40H71zM6,40H7V41H6zM8,40H9V41H8zM9,40H10V41H9zM10,40H11V41H10zM11,40H12V41H11zM12,40H13V41H12zM13,40H14V41H13zM16,40H17V41H16zM19,40H20V41H19zM20,40H21V41H20zM22,40H23V41H22zM27,40H28V41H27zM31,40H32V41H31zM32,40H33V41H32zM34,40H35V41H34zM35,40H36V41H35zM36,40H37V41H36zM37,40H38V41H37zM38,40H39V41H38zM39,40H40V41H39zM40,40H41V41H40zM41,40H42V41H41zM45,40H46V41H45zM48,40H49V41H48zM49,40H50V41H49zM51,40H52V41H51zM52,40H53V41H52zM54,40H55V41H54zM57,40H58V41H57zM60,40H61V41H60zM63,40H64V41H63zM64,40H65V41H64zM65,40H66V41H65zM66,40H67V41H66zM67,40H68V41H67zM68,40H69V41H68zM69,40H70V41H69zM72,40H73V41H72zM4,41H5V42H4zM5,41H6V42H5zM8,41H9V42H8zM13,41H14V42H13zM19,41H20V42H19zM23,41H24V42H23zM25,41H26V42H25zM28,41H29V42H28zM29,41H30V42H29zM30,41H31V42H30zM31,41H32V42H31zM32,41H33V42H32zM33,41H34V42H33zM34,41H35V42H34zM36,41H37V42H36zM37,41H38V42H37zM38,41H39V42H38zM39,41H40V42H39zM41,41H42V42H41zM42,41H43V42H42zM43,41H44V42H43zM45,41H46V42H45zM46,41H47V42H46zM49,41H50V42H49zM50,41H51V42H50zM56,41H57V42H56zM58,41H59V42H58zM59,41H60V42H59zM60,41H61V42H60zM61,41H62V42H61zM64,41H65V42H64zM67,41H68V42H67zM70,41H71V42H70zM71,41H72V42H71zM72,41H73V42H72zM6,42H7V43H6zM7,42H8V43H7zM10,42H11V43H10zM11,42H12V43H11zM13,42H14V43H13zM14,42H15V43H14zM15,42H16V43H15zM20,42H21V43H20zM23,42H24V43H23zM24,42H25V43H24zM31,42H32V43H31zM32,42H33V43H32zM35,42H36V43H35zM37,42H38V43H37zM40,42H41V43H40zM42,42H43V43H42zM44,42H45V43H44zM45,42H46V43H45zM46,42H47V43H46zM47,42H48V43H47zM48,42H49V43H48zM49,42H50V43H49zM51,42H52V43H51zM52,42H53V43H52zM53,42H54V43H53zM54,42H55V43H54zM56,42H57V43H56zM58,42H59V43H58zM62,42H63V43H62zM64,42H65V43H64zM65,42H66V43H65zM67,42H68V43H67zM69,42H70V43H69zM70,42H71V43H70zM4,43H5V44H4zM5,43H6V44H5zM6,43H7V44H6zM9,43H10V44H9zM12,43H13V44H12zM13,43H14V44H13zM15,43H16V44H15zM19,43H20V44H19zM20,43H21V44H20zM22,43H23V44H22zM23,43H24V44H23zM24,43H25V44H24zM26,43H27V44H26zM27,43H28V44H27zM30,43H31V44H30zM32,43H33V44H32zM35,43H36V44H35zM36,43H37V44H36zM38,43H39V44H38zM40,43H41V44H40zM41,43H42V44H41zM42,43H43V44H42zM43,43H44V44H43zM44,43H45V44H44zM46,43H47V44H46zM47,43H48V44H47zM51,43H52V44H51zM58,43H59V44H58zM62,43H63V44H62zM63,43H64V44H63zM65,43H66V44H65zM69,43H70V44H69zM70,43H71V44H70zM6,44H7V45H6zM8,44H9V45H8zM9,44H10V45H9zM10,44H11V45H10zM11,44H12V45H11zM12,44H13V45H12zM13,44H14V45H13zM14,44H15V45H14zM15,44H16V45H15zM16,44H17V45H16zM18,44H19V45H18zM19,44H20V45H19zM20,44H21V45H20zM22,44H23V45H22zM24,44H25V45H24zM26,44H27V45H26zM27,44H28V45H27zM32,44H33V45H32zM33,44H34V45H33zM34,44H35V45H34zM39,44H40V45H39zM40,44H41V45H40zM42,44H43V45H42zM43,44H44V45H43zM45,44H46V45H45zM47,44H48V45H47zM49,44H50V45H49zM50,44H51V45H50zM51,44H52V45H51zM52,44H53V45H52zM57,44H58V45H57zM62,44H63V45H62zM65,44H66V45H65zM66,44H67V45H66zM67,44H68V45H67zM68,44H69V45H68zM7,45H8V46H7zM8,45H9V46H8zM9,45H10V46H9zM11,45H12V46H11zM12,45H13V46H12zM13,45H14V46H13zM16,45H17V46H16zM17,45H18V46H17zM19,45H20V46H19zM20,45H21V46H20zM21,45H22V46H21zM25,45H26V46H25zM26,45H27V46H26zM28,45H29V46H28zM29,45H30V46H29zM32,45H33V46H32zM33,45H34V46H33zM35,45H36V46H35zM39,45H40V46H39zM40,45H41V46H40zM41,45H42V46H41zM42,45H43V46H42zM43,45H44V46H43zM45,45H46V46H45zM46,45H47V46H46zM49,45H50V46H49zM51,45H52V46H51zM53,45H54V46H53zM55,45H56V46H55zM58,45H59V46H58zM60,45H61V46H60zM61,45H62V46H61zM63,45H64V46H63zM64,45H65V46H64zM65,45H66V46H65zM67,45H68V46H67zM70,45H71V46H70zM72,45H73V46H72zM5,46H6V47H5zM6,46H7V47H6zM9,46H10V47H9zM10,46H11V47H10zM11,46H12V47H11zM12,46H13V47H12zM15,46H16V47H15zM16,46H17V47H16zM18,46H19V47H18zM19,46H20V47H19zM20,46H21V47H20zM22,46H23V47H22zM24,46H25V47H24zM25,46H26V47H25zM27,46H28V47H27zM29,46H30V47H29zM30,46H31V47H30zM31,46H32V47H31zM32,46H33V47H32zM34,46H35V47H34zM35,46H36V47H35zM39,46H40V47H39zM40,46H41V47H40zM42,46H43V47H42zM43,46H44V47H43zM44,46H45V47H44zM45,46H46V47H45zM46,46H47V47H46zM47,46H48V47H47zM48,46H49V47H48zM55,46H56V47H55zM56,46H57V47H56zM59,46H60V47H59zM60,46H61V47H60zM61,46H62V47H61zM64,46H65V47H64zM66,46H67V47H66zM68,46H69V47H68zM69,46H70V47H69zM70,46H71V47H70zM72,46H73V47H72zM4,47H5V48H4zM7,47H8V48H7zM13,47H14V48H13zM15,47H16V48H15zM16,47H17V48H16zM20,47H21V48H20zM21,47H22V48H21zM23,47H24V48H23zM31,47H32V48H31zM32,47H33V48H32zM33,47H34V48H33zM34,47H35V48H34zM35,47H36V48H35zM36,47H37V48H36zM37,47H38V48H37zM41,47H42V48H41zM44,47H45V48H44zM47,47H48V48H47zM52,47H53V48H52zM53,47H54V48H53zM56,47H57V48H56zM60,47H61V48H60zM66,47H67V48H66zM69,47H70V48H69zM70,47H71V48H70zM4,48H5V49H4zM10,48H11V49H10zM11,48H12V49H11zM12,48H13V49H12zM13,48H14V49H13zM14,48H15V49H14zM15,48H16V49H15zM19,48H20V49H19zM22,48H23V49H22zM23,48H24V49H23zM28,48H29V49H28zM31,48H32V49H31zM33,48H34V49H33zM34,48H35V49H34zM36,48H37V49H36zM38,48H39V49H38zM39,48H40V49H39zM40,48H41V49H40zM42,48H43V49H42zM46,48H47V49H46zM48,48H49V49H48zM50,48H51V49H50zM51,48H52V49H51zM54,48H55V49H54zM57,48H58V49H57zM58,48H59V49H58zM62,48H63V49H62zM64,48H65V49H64zM65,48H66V49H65zM68,48H69V49H68zM70,48H71V49H70zM72,48H73V49H72zM5,49H6V50H5zM7,49H8V50H7zM11,49H12V50H11zM12,49H13V50H12zM16,49H17V50H16zM19,49H20V50H19zM20,49H21V50H20zM24,49H25V50H24zM25,49H26V50H25zM29,49H30V50H29zM40,49H41V50H40zM41,49H42V50H41zM42,49H43V50H42zM43,49H44V50H43zM44,49H45V50H44zM47,49H48V50H47zM48,49H49V50H48zM53,49H54V50H53zM54,49H55V50H54zM55,49H56V50H55zM56,49H57V50H56zM58,49H59V50H58zM60,49H61V50H60zM61,49H62V50H61zM62,49H63V50H62zM63,49H64V50H63zM64,49H65V50H64zM65,49H66V50H65zM68,49H69V50H68zM72,49H73V50H72zM4,50H5V51H4zM5,50H6V51H5zM6,50H7V51H6zM9,50H10V51H9zM10,50H11V51H10zM11,50H12V51H11zM12,50H13V51H12zM15,50H16V51H15zM17,50H18V51H17zM20,50H21V51H20zM21,50H22V51H21zM25,50H26V51H25zM27,50H28V51H27zM28,50H29V51H28zM30,50H31V51H30zM31,50H32V51H31zM32,50H33V51H32zM33,50H34V51H33zM34,50H35V51H34zM37,50H38V51H37zM38,50H39V51H38zM42,50H43V51H42zM43,50H44V51H43zM44,50H45V51H44zM46,50H47V51H46zM50,50H51V51H50zM51,50H52V51H51zM54,50H55V51H54zM57,50H58V51H57zM60,50H61V51H60zM61,50H62V51H61zM62,50H63V51H62zM64,50H65V51H64zM67,50H68V51H67zM69,50H70V51H69zM70,50H71V51H70zM71,50H72V51H71zM9,51H10V52H9zM11,51H12V52H11zM12,51H13V52H12zM13,51H14V52H13zM14,51H15V52H14zM17,51H18V52H17zM18,51H19V52H18zM21,51H22V52H21zM24,51H25V52H24zM25,51H26V52H25zM27,51H28V52H27zM29,51H30V52H29zM30,51H31V52H30zM31,51H32V52H31zM34,51H35V52H34zM35,51H36V52H35zM36,51H37V52H36zM37,51H38V52H37zM39,51H40V52H39zM42,51H43V52H42zM43,51H44V52H43zM44,51H45V52H44zM46,51H47V52H46zM47,51H48V52H47zM49,51H50V52H49zM50,51H51V52H50zM53,51H54V52H53zM54,51H55V52H54zM55,51H56V52H55zM56,51H57V52H56zM57,51H58V52H57zM58,51H59V52H58zM60,51H61V52H60zM61,51H62V52H61zM63,51H64V52H63zM65,51H66V52H65zM66,51H67V52H66zM67,51H68V52H67zM69,51H70V52H69zM70,51H71V52H70zM72,51H73V52H72zM5,52H6V53H5zM8,52H9V53H8zM10,52H11V53H10zM11,52H12V53H11zM13,52H14V53H13zM22,52H23V53H22zM24,52H25V53H24zM26,52H27V53H26zM29,52H30V53H29zM31,52H32V53H31zM34,52H35V53H34zM39,52H40V53H39zM40,52H41V53H40zM41,52H42V53H41zM43,52H44V53H43zM44,52H45V53H44zM45,52H46V53H45zM46,52H47V53H46zM47,52H48V53H47zM48,52H49V53H48zM49,52H50V53H49zM52,52H53V53H52zM54,52H55V53H54zM55,52H56V53H55zM56,52H57V53H56zM57,52H58V53H57zM58,52H59V53H58zM60,52H61V53H60zM61,52H62V53H61zM62,52H63V53H62zM63,52H64V53H63zM67,52H68V53H67zM71,52H72V53H71zM72,52H73V53H72zM6,53H7V54H6zM9,53H10V54H9zM12,53H13V54H12zM14,53H15V54H14zM17,53H18V54H17zM18,53H19V54H18zM20,53H21V54H20zM22,53H23V54H22zM23,53H24V54H23zM24,53H25V54H24zM25,53H26V54H25zM28,53H29V54H28zM29,53H30V54H29zM32,53H33V54H32zM34,53H35V54H34zM36,53H37V54H36zM38,53H39V54H38zM39,53H40V54H39zM40,53H41V54H40zM41,53H42V54H41zM44,53H45V54H44zM46,53H47V54H46zM51,53H52V54H51zM52,53H53V54H52zM56,53H57V54H56zM57,53H58V54H57zM58,53H59V54H58zM59,53H60V54H59zM60,53H61V54H60zM61,53H62V54H61zM64,53H65V54H64zM67,53H68V54H67zM70,53H71V54H70zM72,53H73V54H72zM5,54H6V55H5zM7,54H8V55H7zM8,54H9V55H8zM9,54H10V55H9zM10,54H11V55H10zM11,54H12V55H11zM13,54H14V55H13zM15,54H16V55H15zM16,54H17V55H16zM17,54H18V55H17zM19,54H20V55H19zM21,54H22V55H21zM22,54H23V55H22zM23,54H24V55H23zM24,54H25V55H24zM25,54H26V55H25zM27,54H28V55H27zM29,54H30V55H29zM30,54H31V55H30zM33,54H34V55H33zM34,54H35V55H34zM35,54H36V55H35zM36,54H37V55H36zM37,54H38V55H37zM39,54H40V55H39zM41,54H42V55H41zM42,54H43V55H42zM46,54H47V55H46zM47,54H48V55H47zM48,54H49V55H48zM49,54H50V55H49zM51,54H52V55H51zM52,54H53V55H52zM54,54H55V55H54zM55,54H56V55H55zM62,54H63V55H62zM63,54H64V55H63zM65,54H66V55H65zM67,54H68V55H67zM68,54H69V55H68zM71,54H72V55H71zM4,55H5V56H4zM5,55H6V56H5zM6,55H7V56H6zM7,55H8V56H7zM8,55H9V56H8zM11,55H12V56H11zM12,55H13V56H12zM13,55H14V56H13zM15,55H16V56H15zM16,55H17V56H16zM19,55H20V56H19zM20,55H21V56H20zM23,55H24V56H23zM24,55H25V56H24zM25,55H26V56H25zM27,55H28V56H27zM28,55H29V56H28zM31,55H32V56H31zM32,55H33V56H32zM34,55H35V56H34zM35,55H36V56H35zM37,55H38V56H37zM38,55H39V56H38zM47,55H48V56H47zM54,55H55V56H54zM55,55H56V56H55zM58,55H59V56H58zM61,55H62V56H61zM63,55H64V56H63zM67,55H68V56H67zM70,55H71V56H70zM71,55H72V56H71zM8,56H9V57H8zM9,56H10V57H9zM10,56H11V57H10zM11,56H12V57H11zM12,56H13V57H12zM13,56H14V57H13zM15,56H16V57H15zM18,56H19V57H18zM19,56H20V57H19zM22,56H23V57H22zM25,56H26V57H25zM26,56H27V57H26zM30,56H31V57H30zM32,56H33V57H32zM33,56H34V57H33zM34,56H35V57H34zM35,56H36V57H35zM36,56H37V57H36zM37,56H38V57H37zM39,56H40V57H39zM42,56H43V57H42zM44,56H45V57H44zM51,56H52V57H51zM52,56H53V57H52zM54,56H55V57H54zM55,56H56V57H55zM62,56H63V57H62zM65,56H66V57H65zM67,56H68V57H67zM68,56H69V57H68zM69,56H70V57H69zM6,57H7V58H6zM7,57H8V58H7zM13,57H14V58H13zM15,57H16V58H15zM18,57H19V58H18zM20,57H21V58H20zM23,57H24V58H23zM25,57H26V58H25zM26,57H27V58H26zM27,57H28V58H27zM29,57H30V58H29zM31,57H32V58H31zM34,57H35V58H34zM35,57H36V58H35zM36,57H37V58H36zM38,57H39V58H38zM39,57H40V58H39zM41,57H42V58H41zM42,57H43V58H42zM43,57H44V58H43zM45,57H46V58H45zM46,57H47V58H46zM47,57H48V58H47zM48,57H49V58H48zM49,57H50V58H49zM50,57H51V58H50zM52,57H53V58H52zM56,57H57V58H56zM58,57H59V58H58zM65,57H66V58H65zM67,57H68V58H67zM69,57H70V58H69zM70,57H71V58H70zM4,58H5V59H4zM6,58H7V59H6zM8,58H9V59H8zM9,58H10V59H9zM10,58H11V59H10zM14,58H15V59H14zM16,58H17V59H16zM17,58H18V59H17zM20,58H21V59H20zM21,58H22V59H21zM23,58H24V59H23zM24,58H25V59H24zM25,58H26V59H25zM26,58H27V59H26zM28,58H29V59H28zM29,58H30V59H29zM30,58H31V59H30zM33,58H34V59H33zM34,58H35V59H34zM37,58H38V59H37zM40,58H41V59H40zM41,58H42V59H41zM43,58H44V59H43zM44,58H45V59H44zM45,58H46V59H45zM49,58H50V59H49zM55,58H56V59H55zM56,58H57V59H56zM60,58H61V59H60zM63,58H64V59H63zM64,58H65V59H64zM66,58H67V59H66zM67,58H68V59H67zM68,58H69V59H68zM70,58H71V59H70zM72,58H73V59H72zM5,59H6V60H5zM7,59H8V60H7zM8,59H9V60H8zM11,59H12V60H11zM16,59H17V60H16zM17,59H18V60H17zM18,59H19V60H18zM19,59H20V60H19zM21,59H22V60H21zM23,59H24V60H23zM25,59H26V60H25zM26,59H27V60H26zM27,59H28V60H27zM29,59H30V60H29zM31,59H32V60H31zM32,59H33V60H32zM34,59H35V60H34zM35,59H36V60H35zM36,59H37V60H36zM40,59H41V60H40zM41,59H42V60H41zM42,59H43V60H42zM44,59H45V60H44zM53,59H54V60H53zM54,59H55V60H54zM55,59H56V60H55zM56,59H57V60H56zM57,59H58V60H57zM58,59H59V60H58zM60,59H61V60H60zM61,59H62V60H61zM63,59H64V60H63zM65,59H66V60H65zM66,59H67V60H66zM67,59H68V60H67zM68,59H69V60H68zM69,59H70V60H69zM70,59H71V60H70zM71,59H72V60H71zM4,60H5V61H4zM7,60H8V61H7zM8,60H9V61H8zM10,60H11V61H10zM11,60H12V61H11zM13,60H14V61H13zM17,60H18V61H17zM22,60H23V61H22zM26,60H27V61H26zM28,60H29V61H28zM30,60H31V61H30zM32,60H33V61H32zM33,60H34V61H33zM35,60H36V61H35zM39,60H40V61H39zM43,60H44V61H43zM44,60H45V61H44zM48,60H49V61H48zM49,60H50V61H49zM51,60H52V61H51zM52,60H53V61H52zM54,60H55V61H54zM57,60H58V61H57zM58,60H59V61H58zM59,60H60V61H59zM61,60H62V61H61zM62,60H63V61H62zM67,60H68V61H67zM68,60H69V61H68zM69,60H70V61H69zM71,60H72V61H71zM72,60H73V61H72zM7,61H8V62H7zM9,61H10V62H9zM11,61H12V62H11zM14,61H15V62H14zM15,61H16V62H15zM16,61H17V62H16zM17,61H18V62H17zM18,61H19V62H18zM22,61H23V62H22zM24,61H25V62H24zM27,61H28V62H27zM31,61H32V62H31zM32,61H33V62H32zM34,61H35V62H34zM36,61H37V62H36zM40,61H41V62H40zM41,61H42V62H41zM48,61H49V62H48zM52,61H53V62H52zM54,61H55V62H54zM55,61H56V62H55zM56,61H57V62H56zM57,61H58V62H57zM58,61H59V62H58zM62,61H63V62H62zM67,61H68V62H67zM68,61H69V62H68zM70,61H71V62H70zM71,61H72V62H71zM4,62H5V63H4zM6,62H7V63H6zM8,62H9V63H8zM9,62H10V63H9zM10,62H11V63H10zM11,62H12V63H11zM12,62H13V63H12zM13,62H14V63H13zM15,62H16V63H15zM16,62H17V63H16zM17,62H18V63H17zM18,62H19V63H18zM19,62H20V63H19zM20,62H21V63H20zM29,62H30V63H29zM32,62H33V63H32zM33,62H34V63H33zM35,62H36V63H35zM37,62H38V63H37zM41,62H42V63H41zM43,62H44V63H43zM45,62H46V63H45zM50,62H51V63H50zM51,62H52V63H51zM52,62H53V63H52zM54,62H55V63H54zM62,62H63V63H62zM70,62H71V63H70zM4,63H5V64H4zM11,63H12V64H11zM12,63H13V64H12zM14,63H15V64H14zM17,63H18V64H17zM19,63H20V64H19zM21,63H22V64H21zM23,63H24V64H23zM24,63H25V64H24zM26,63H27V64H26zM28,63H29V64H28zM31,63H32V64H31zM32,63H33V64H32zM40,63H41V64H40zM41,63H42V64H41zM42,63H43V64H42zM46,63H47V64H46zM47,63H48V64H47zM53,63H54V64H53zM55,63H56V64H55zM56,63H57V64H56zM60,63H61V64H60zM61,63H62V64H61zM62,63H63V64H62zM63,63H64V64H63zM65,63H66V64H65zM66,63H67V64H66zM69,63H70V64H69zM70,63H71V64H70zM72,63H73V64H72zM4,64H5V65H4zM7,64H8V65H7zM8,64H9V65H8zM10,64H11V65H10zM14,64H15V65H14zM15,64H16V65H15zM16,64H17V65H16zM19,64H20V65H19zM23,64H24V65H23zM27,64H28V65H27zM29,64H30V65H29zM31,64H32V65H31zM32,64H33V65H32zM34,64H35V65H34zM36,64H37V65H36zM37,64H38V65H37zM38,64H39V65H38zM39,64H40V65H39zM40,64H41V65H40zM41,64H42V65H41zM43,64H44V65H43zM45,64H46V65H45zM46,64H47V65H46zM48,64H49V65H48zM49,64H50V65H49zM50,64H51V65H50zM51,64H52V65H51zM52,64H53V65H52zM55,64H56V65H55zM56,64H57V65H56zM57,64H58V65H57zM58,64H59V65H58zM60,64H61V65H60zM63,64H64V65H63zM64,64H65V65H64zM65,64H66V65H65zM66,64H67V65H66zM67,64H68V65H67zM68,64H69V65H68zM69,64H70V65H69zM71,64H72V65H71zM72,64H73V65H72zM12,65H13V66H12zM15,65H16V66H15zM17,65H18V66H17zM19,65H20V66H19zM20,65H21V66H20zM24,65H25V66H24zM25,65H26V66H25zM27,65H28V66H27zM28,65H29V66H28zM32,65H33V66H32zM35,65H36V66H35zM36,65H37V66H36zM40,65H41V66H40zM42,65H43V66H42zM43,65H44V66H43zM44,65H45V66H44zM45,65H46V66H45zM47,65H48V66H47zM48,65H49V66H48zM49,65H50V66H49zM53,65H54V66H53zM56,65H57V66H56zM58,65H59V66H58zM59,65H60V66H59zM60,65H61V66H60zM63,65H64V66H63zM64,65H65V66H64zM68,65H69V66H68zM70,65H71V66H70zM72,65H73V66H72zM4,66H5V67H4zM5,66H6V67H5zM6,66H7V67H6zM7,66H8V67H7zM8,66H9V67H8zM9,66H10V67H9zM10,66H11V67H10zM14,66H15V67H14zM17,66H18V67H17zM18,66H19V67H18zM22,66H23V67H22zM23,66H24V67H23zM24,66H25V67H24zM26,66H27V67H26zM27,66H28V67H27zM29,66H30V67H29zM30,66H31V67H30zM32,66H33V67H32zM33,66H34V67H33zM34,66H35V67H34zM35,66H36V67H35zM36,66H37V67H36zM38,66H39V67H38zM40,66H41V67H40zM41,66H42V67H41zM45,66H46V67H45zM46,66H47V67H46zM50,66H51V67H50zM51,66H52V67H51zM52,66H53V67H52zM54,66H55V67H54zM55,66H56V67H55zM61,66H62V67H61zM62,66H63V67H62zM63,66H64V67H63zM64,66H65V67H64zM66,66H67V67H66zM68,66H69V67H68zM69,66H70V67H69zM71,66H72V67H71zM4,67H5V68H4zM10,67H11V68H10zM12,67H13V68H12zM13,67H14V68H13zM16,67H17V68H16zM18,67H19V68H18zM22,67H23V68H22zM23,67H24V68H23zM28,67H29V68H28zM29,67H30V68H29zM35,67H36V68H35zM36,67H37V68H36zM40,67H41V68H40zM41,67H42V68H41zM42,67H43V68H42zM43,67H44V68H43zM46,67H47V68H46zM48,67H49V68H48zM49,67H50V68H49zM50,67H51V68H50zM53,67H54V68H53zM54,67H55V68H54zM57,67H58V68H57zM58,67H59V68H58zM59,67H60V68H59zM61,67H62V68H61zM64,67H65V68H64zM68,67H69V68H68zM70,67H71V68H70zM71,67H72V68H71zM4,68H5V69H4zM6,68H7V69H6zM7,68H8V69H7zM8,68H9V69H8zM10,68H11V69H10zM14,68H15V69H14zM16,68H17V69H16zM17,68H18V69H17zM18,68H19V69H18zM20,68H21V69H20zM21,68H22V69H21zM22,68H23V69H22zM23,68H24V69H23zM25,68H26V69H25zM26,68H27V69H26zM27,68H28V69H27zM28,68H29V69H28zM29,68H30V69H29zM31,68H32V69H31zM34,68H35V69H34zM36,68H37V69H36zM37,68H38V69H37zM38,68H39V69H38zM39,68H40V69H39zM40,68H41V69H40zM41,68H42V69H41zM43,68H44V69H43zM47,68H48V69H47zM52,68H53V69H52zM53,68H54V69H53zM57,68H58V69H57zM58,68H59V69H58zM64,68H65V69H64zM65,68H66V69H65zM66,68H67V69H66zM67,68H68V69H67zM68,68H69V69H68zM71,68H72V69H71zM4,69H5V70H4zM6,69H7V70H6zM7,69H8V70H7zM8,69H9V70H8zM10,69H11V70H10zM15,69H16V70H15zM16,69H17V70H16zM17,69H18V70H17zM27,69H28V70H27zM28,69H29V70H28zM30,69H31V70H30zM34,69H35V70H34zM37,69H38V70H37zM41,69H42V70H41zM42,69H43V70H42zM43,69H44V70H43zM44,69H45V70H44zM45,69H46V70H45zM46,69H47V70H46zM47,69H48V70H47zM50,69H51V70H50zM51,69H52V70H51zM52,69H53V70H52zM53,69H54V70H53zM56,69H57V70H56zM57,69H58V70H57zM58,69H59V70H58zM60,69H61V70H60zM61,69H62V70H61zM63,69H64V70H63zM65,69H66V70H65zM67,69H68V70H67zM68,69H69V70H68zM70,69H71V70H70zM4,70H5V71H4zM6,70H7V71H6zM7,70H8V71H7zM8,70H9V71H8zM10,70H11V71H10zM14,70H15V71H14zM16,70H17V71H16zM18,70H19V71H18zM21,70H22V71H21zM22,70H23V71H22zM25,70H26V71H25zM26,70H27V71H26zM27,70H28V71H27zM28,70H29V71H28zM30,70H31V71H30zM32,70H33V71H32zM33,70H34V71H33zM35,70H36V71H35zM38,70H39V71H38zM42,70H43V71H42zM44,70H45V71H44zM46,70H47V71H46zM49,70H50V71H49zM52,70H53V71H52zM53,70H54V71H53zM55,70H56V71H55zM56,70H57V71H56zM57,70H58V71H57zM59,70H60V71H59zM60,70H61V71H60zM62,70H63V71H62zM64,70H65V71H64zM66,70H67V71H66zM67,70H68V71H67zM68,70H69V71H68zM69,70H70V71H69zM71,70H72V71H71zM72,70H73V71H72zM4,71H5V72H4zM10,71H11V72H10zM13,71H14V72H13zM16,71H17V72H16zM21,71H22V72H21zM24,71H25V72H24zM25,71H26V72H25zM27,71H28V72H27zM29,71H30V72H29zM39,71H40V72H39zM40,71H41V72H40zM42,71H43V72H42zM45,71H46V72H45zM46,71H47V72H46zM48,71H49V72H48zM49,71H50V72H49zM54,71H55V72H54zM56,71H57V72H56zM57,71H58V72H57zM58,71H59V72H58zM60,71H61V72H60zM62,71H63V72H62zM63,71H64V72H63zM64,71H65V72H64zM67,71H68V72H67zM70,71H71V72H70zM4,72H5V73H4zM5,72H6V73H5zM6,72H7V73H6zM7,72H8V73H7zM8,72H9V73H8zM9,72H10V73H9zM10,72H11V73H10zM13,72H14V73H13zM14,72H15V73H14zM15,72H16V73H15zM18,72H19V73H18zM19,72H20V73H19zM23,72H24V73H23zM24,72H25V73H24zM25,72H26V73H25zM32,72H33V73H32zM34,72H35V73H34zM38,72H39V73H38zM39,72H40V73H39zM42,72H43V73H42zM45,72H46V73H45zM46,72H47V73H46zM48,72H49V73H48zM49,72H50V73H49zM50,72H51V73H50zM51,72H52V73H51zM52,72H53V73H52zM53,72H54V73H53zM58,72H59V73H58zM59,72H60V73H59zM63,72H64V73H63zM64,72H65V73H64zM66,72H67V73H66zM69,72H70V73H69zM71,72H72V73H71z" id="qr-path" fill="#000000" fill-opacity="1" fill-rule="nonzero" stroke="none" />
    <!-- White background square behind central logo -->
    <rect x="28" y="28" width="21" height="21" fill="white" rx="6" ry="6"/>
    <!-- Official WhatsApp SVG icon -->
    <image href="images/icons8-whatsapp.svg" x="32" y="32" width="13" height="13"/>
</svg>